<?xml version="1.0" standalone="no"?>
<!DOCTYPE svg PUBLIC "-//W3C//DTD SVG 20010904//EN"
 "http://www.w3.org/TR/2001/REC-SVG-20010904/DTD/svg10.dtd">
<svg version="1.0" xmlns="http://www.w3.org/2000/svg"
 width="150px" height="160px" viewBox="0 0 750.000000 945.000000"
 preserveAspectRatio="xMidYMid meet" >
<metadata>
Created by potrace 1.15, written by Peter Selinger 2001-2017
</metadata>
<g transform="translate(0.000000,945.000000) scale(0.100000,-0.100000)"
fill="#000000" stroke="none">
<path d="M3832 7430 c-129 -18 -359 -63 -437 -85 -90 -27 -335 -145 -434 -210
-150 -99 -299 -250 -451 -459 -115 -157 -220 -286 -344 -424 -195 -217 -212
-236 -193 -226 42 24 250 222 371 354 154 168 219 243 378 435 124 151 225
252 333 333 90 68 158 100 244 112 39 5 90 14 114 19 105 24 385 74 511 91
168 24 233 25 309 5 79 -21 93 -18 28 6 -124 44 -311 65 -429 49z"/>
<path d="M4401 7185 c-1 -45 41 -284 64 -369 16 -57 28 -131 32 -198 3 -60 9
-108 13 -108 13 0 31 76 37 155 5 67 1 96 -21 175 -31 116 -125 373 -125 345z"/>
<path d="M4630 7049 c166 -29 286 -162 298 -330 6 -84 -5 -128 -73 -299 -29
-74 -79 -209 -110 -300 -31 -91 -83 -220 -116 -286 -61 -126 -64 -134 -51
-134 26 0 195 283 258 431 78 185 154 476 154 592 0 133 -67 240 -188 299 -57
28 -79 33 -147 35 l-80 2 55 -10z"/>
<path d="M3800 7043 c0 -4 12 -24 26 -44 27 -40 87 -84 127 -94 l24 -6 6 -192
c7 -214 19 -301 47 -357 14 -27 22 -77 31 -201 l12 -165 -49 -119 c-41 -102
-48 -130 -48 -185 0 -66 27 -143 59 -170 8 -7 6 3 -6 27 -10 20 -19 50 -19 65
0 39 34 136 76 220 44 88 91 227 100 298 l6 55 -30 -35 -31 -35 -2 65 c-2 36
-3 76 -3 90 -1 14 -15 43 -32 64 -46 55 -56 120 -45 294 8 146 2 265 -19 366
-12 61 -26 65 -36 11 -3 -19 -11 -35 -18 -35 -6 0 -48 20 -93 45 -46 24 -83
41 -83 38z"/>
<path d="M3490 6954 c-14 -3 -58 -12 -97 -20 -83 -18 -78 -10 -97 -152 l-12
-86 -22 31 c-13 18 -37 42 -53 54 l-31 22 35 -49 c42 -59 78 -130 103 -204 15
-43 19 -83 19 -180 -1 -151 -15 -195 -105 -321 -32 -46 -89 -128 -126 -183
-108 -160 -219 -293 -286 -342 -75 -55 -183 -108 -262 -128 -67 -18 -71 -20
-61 -37 11 -17 145 -5 226 20 78 25 173 84 231 145 24 24 70 88 103 142 68
111 174 258 181 251 4 -4 -4 -134 -27 -406 -12 -148 -4 -311 16 -311 18 0 43
141 55 315 39 534 36 505 68 575 16 36 35 90 42 120 20 82 15 223 -9 300 -18
58 -20 81 -14 203 4 84 11 141 18 147 20 17 183 50 307 62 94 10 114 14 92 21
-33 9 -257 18 -294 11z"/>
<path d="M3055 6810 c-54 -35 -136 -155 -164 -238 -36 -107 -21 -222 38 -292
l29 -35 32 30 c17 17 50 67 72 111 l40 82 -18 92 c-17 90 -14 162 12 248 8 27
-2 28 -41 2z"/>
<path d="M4282 6660 c-37 -35 -83 -162 -108 -302 -22 -117 -17 -132 48 -153
64 -21 94 -46 109 -92 15 -46 30 -31 68 65 60 158 86 346 57 415 -32 77 -125
113 -174 67z"/>
<path d="M2787 6454 c-39 -36 -90 -70 -151 -99 -106 -50 -181 -104 -226 -160
-57 -72 -53 -78 17 -20 37 31 95 69 128 84 33 16 85 40 115 54 63 30 133 95
162 150 11 22 18 40 16 42 -2 2 -29 -21 -61 -51z"/>
<path d="M5030 6366 c0 -3 19 -15 41 -27 23 -11 63 -42 90 -69 55 -55 89 -145
89 -234 0 -65 -18 -102 -118 -253 -44 -68 -106 -169 -138 -225 -31 -57 -71
-127 -88 -156 -30 -52 -100 -125 -181 -189 -50 -39 -43 -49 15 -20 39 20 117
93 213 202 19 22 38 37 42 33 8 -8 33 -127 45 -216 16 -119 -22 -260 -97 -362
-24 -32 -22 -31 21 10 95 90 157 268 137 390 -12 71 -24 101 -62 156 -17 25
-28 50 -25 57 3 7 37 55 76 107 83 114 182 285 205 358 24 73 17 221 -12 277
-26 50 -85 107 -138 133 -42 21 -115 39 -115 28z"/>
<path d="M4295 5908 c-77 -67 -205 -285 -205 -347 0 -27 6 -33 55 -57 60 -28
85 -62 85 -114 0 -19 5 -30 14 -30 31 0 162 164 228 286 32 60 41 87 41 127 2
137 -126 216 -218 135z"/>
<path d="M4512 5510 c-69 -47 -198 -178 -217 -222 -17 -42 -10 -60 36 -94 49
-37 73 -85 65 -129 -6 -33 -5 -34 30 -41 20 -4 54 -1 77 6 45 13 127 65 127
80 0 13 -1 13 -75 -15 -36 -13 -65 -21 -65 -17 0 4 19 21 41 37 55 40 174 170
193 210 34 72 11 182 -45 210 -51 27 -101 19 -167 -25z"/>
<path d="M3079 5244 c-56 -61 -268 -230 -393 -313 -74 -50 -137 -94 -140 -99
-9 -15 92 7 162 35 61 25 172 94 238 148 l31 25 6 -137 c3 -76 17 -212 32
-301 15 -90 25 -165 23 -167 -9 -8 -391 39 -488 61 l-25 6 25 -21 c83 -67 249
-115 378 -109 48 3 94 8 103 12 13 6 22 -25 57 -206 48 -242 92 -425 115 -481
17 -38 42 -56 57 -41 10 10 -14 145 -59 327 -64 257 -161 863 -161 1003 0 95
15 147 55 190 17 19 31 45 33 63 3 39 -16 41 -49 5z"/>
<path d="M4252 5197 c15 -12 38 -44 50 -72 20 -46 22 -64 20 -210 -3 -274 -44
-626 -112 -967 -22 -108 -40 -205 -40 -216 0 -25 35 -39 55 -22 18 15 61 198
85 362 65 439 86 899 49 1033 -14 49 -77 115 -110 115 l-24 0 27 -23z"/>
<path d="M3318 5205 c-13 -13 -9 -52 5 -64 7 -6 42 -17 78 -25 169 -39 445
-28 602 24 161 54 139 69 -77 52 -109 -9 -186 -10 -276 -2 -228 18 -325 22
-332 15z"/>
<path d="M4832 5085 c-22 -20 -64 -66 -91 -103 -55 -73 -66 -116 -31 -127 29
-9 60 -54 60 -86 0 -16 5 -29 11 -29 21 0 175 166 198 213 28 57 23 106 -14
143 -36 36 -82 32 -133 -11z"/>
<path d="M3459 5020 c-215 -9 -239 -17 -270 -83 -32 -72 -23 -243 32 -587 26
-162 42 -218 91 -313 94 -181 279 -259 502 -212 81 17 177 60 225 101 46 38
108 135 127 198 24 80 45 333 47 551 2 186 1 203 -20 247 -25 54 -67 85 -128
92 -82 10 -426 13 -606 6z"/>
<path d="M4065 3677 c-52 -9 -378 -11 -672 -4 -56 1 -93 -2 -94 -8 -1 -16 158
-63 257 -76 126 -17 325 -6 445 25 110 28 169 51 169 65 0 13 -23 12 -105 -2z"/>
<path d="M422 2733 c-105 -316 -143 -443 -136 -455 7 -11 238 -10 268 2 14 5
26 15 26 22 0 7 5 30 11 51 l10 37 83 0 c94 0 113 -11 123 -73 4 -27 11 -37
30 -42 33 -8 273 6 273 16 0 11 -208 669 -220 697 -9 22 -12 22 -193 22 l-183
0 -92 -277z m313 -31 c16 -70 24 -127 19 -132 -5 -5 -35 -11 -66 -15 -49 -6
-59 -5 -64 10 -8 20 28 197 51 252 21 49 26 40 60 -115z"/>
<path d="M3995 2997 c-3 -6 -4 -172 -3 -367 l3 -355 119 -3 c89 -2 122 1 128
10 4 7 6 83 3 168 -3 85 -1 160 3 167 5 8 29 -45 62 -135 29 -81 60 -159 67
-174 l14 -28 164 0 165 0 0 365 0 365 -107 0 c-60 0 -114 -4 -120 -8 -9 -6
-13 -59 -15 -187 l-3 -180 -59 155 c-32 85 -65 170 -72 188 l-13 32 -166 0
c-124 0 -167 -3 -170 -13z"/>
<path d="M6597 2960 c-125 -32 -193 -112 -185 -221 3 -42 11 -66 31 -92 32
-43 117 -85 195 -98 71 -11 109 -26 116 -46 17 -44 -62 -60 -90 -18 -16 24
-19 25 -141 25 l-125 0 6 -25 c18 -72 69 -139 122 -161 139 -58 368 -22 437
68 54 70 56 178 5 243 -27 35 -118 78 -211 100 -81 20 -112 39 -87 55 24 15
63 11 95 -10 25 -16 47 -20 123 -20 105 0 113 5 93 70 -13 44 -56 84 -121 113
-51 23 -201 32 -263 17z"/>
<path d="M1145 2938 c-3 -7 -6 -150 -8 -318 l-2 -305 245 0 245 0 3 92 3 92
-113 3 -113 3 -3 165 c-1 91 2 185 7 210 6 30 6 49 -1 57 -15 18 -257 18 -263
1z"/>
<path d="M1676 2934 c-3 -9 -6 -145 -6 -304 0 -159 3 -295 6 -304 5 -14 37
-16 255 -16 l249 0 0 90 0 90 -120 0 -120 0 0 35 0 35 105 0 106 0 -3 73 -3
72 -105 0 -105 0 -3 27 -3 27 118 3 118 3 3 93 3 92 -245 0 c-213 0 -245 -2
-250 -16z"/>
<path d="M2238 2938 c-3 -7 -5 -150 -4 -318 l1 -305 115 0 115 0 5 148 5 147
49 -137 c27 -76 54 -144 59 -150 7 -9 50 -13 153 -13 127 0 143 2 148 18 4 13
1 544 -3 610 -1 14 -196 18 -205 3 -3 -5 -9 -75 -12 -155 -4 -80 -9 -145 -11
-143 -1 2 -27 71 -56 153 l-53 149 -151 3 c-115 2 -152 -1 -155 -10z"/>
<path d="M3113 2918 c-6 -18 -50 -157 -98 -307 -48 -151 -89 -281 -92 -288 -4
-10 21 -13 120 -13 136 0 134 -1 152 60 l11 35 79 0 79 0 14 -47 13 -48 135 0
c96 0 134 3 134 12 0 18 -180 569 -196 601 l-15 27 -163 0 -163 0 -10 -32z
m201 -188 c10 -45 20 -99 23 -120 l6 -40 -57 0 c-66 0 -64 -6 -35 117 35 154
37 155 63 43z"/>
<path d="M4942 2883 c-18 -53 -100 -312 -178 -555 -5 -17 3 -18 123 -16 l128
3 14 48 15 48 80 -3 80 -3 11 -45 11 -45 138 -3 138 -3 -7 29 c-3 16 -26 89
-51 163 -24 74 -65 196 -89 272 -25 76 -50 147 -55 158 -10 18 -23 19 -173 19
l-163 0 -22 -67z m217 -185 c29 -135 31 -128 -34 -128 -64 0 -63 -1 -39 100
27 118 35 143 44 134 4 -5 18 -53 29 -106z"/>
<path d="M5532 2938 c-9 -9 -12 -94 -12 -320 l0 -308 140 0 140 0 0 320 0 320
-128 0 c-86 0 -132 -4 -140 -12z"/>
<path d="M5896 2934 c-3 -8 -6 -153 -6 -320 l0 -304 245 0 245 0 0 95 0 95
-111 0 -111 0 3 223 4 222 -131 3 c-113 2 -132 0 -138 -14z"/>
</g>
</svg>
